# xmcd
#
# Track frame offsets: 
#        150
#        16518
#        30662
#        52203
#        69569
#        84308
#        99420
#        116871
#        133241
#        147016
#        163325
#        176502
#        192995
#
# Disc length: 2831 seconds
#
# Revision: 0
# Processed by: cddbd v1.5.2PL0 Copyright (c) Steve Scherf et al.
# Submitted via: ExactAudioCopy v1.0b4
#
DISCID=b30b0d0d
DTITLE=The Charles Burton Blues Band - Sweet Potato Pie
DYEAR=2013
DGENRE=Blues, Electric Blues
TTITLE0=Shake It!
TTITLE1=Double Up
TTITLE2=Drivin' Home (With Chill Boy)
TTITLE3=New York Jump
TTITLE4=Goin' to Memphis
TTITLE5=Crackdown
TTITLE6=Livin' Without You (Blues for Simon)
TTITLE7=Sweet Potato Pie
TTITLE8=New Boogie
TTITLE9=Used to Love That Woman
TTITLE10=Brown Paper Bag
TTITLE11=Your Number
TTITLE12=Drop a Dime
EXTD=
EXTT0=
EXTT1=
EXTT2=
EXTT3=
EXTT4=
EXTT5=
EXTT6=
EXTT7=
EXTT8=
EXTT9=
EXTT10=
EXTT11=
EXTT12=
PLAYORDER=
